<?xml version="1.0" encoding="utf-8"?>
<!-- Generator: Adobe Illustrator 26.0.1, SVG Export Plug-In . SVG Version: 6.00 Build 0)  -->
<svg version="1.1" id="Calque_1" xmlns="http://www.w3.org/2000/svg" xmlns:xlink="http://www.w3.org/1999/xlink" x="0px" y="0px"
	 viewBox="0 0 832.2 548.2" style="enable-background:new 0 0 832.2 548.2;" xml:space="preserve">
<style type="text/css">
	.st0{display:none;}
	.st1{display:inline;}
	.st2{fill:#FFFFFF;stroke:#FFFFFF;stroke-linecap:round;stroke-linejoin:round;stroke-miterlimit:10;}
	.st3{fill:#FFFFFF;}
	.st4{fill:#FFFFFF;stroke:#FFFFFF;stroke-miterlimit:10;}
	.st5{fill:none;stroke:#FFFFFF;stroke-width:3;stroke-linecap:round;stroke-miterlimit:10;}
	.st6{enable-background:new    ;}
</style>
<g id="Calque_1_00000010268987534628053890000009229926451944651960_" class="st0">
	<g transform="translate(0.000000,1280.000000) scale(0.100000,-0.100000)" class="st1">
		<path d="M2739.6,11648.3c-29.2,54.9-80.9,107-139.5,141.2c-48.4,28.1-87.7,43.1-150.5,57.5c-66.2,14.9-114.3,19.4-189.5,18.2
			c-60.4-1.2-57.5-1.6-58.6,7.9c-1.8,16.5-11.4,48.9-19.2,65.2c-20.8,42.1-56.7,74.7-108.8,98.7c-35.4,16.4-70.7,26.5-176.5,50.7
			c-103.2,23.6-133.1,32-164,45.8c-47.3,21.2-78.8,42.7-173.1,119.1c-107.4,86.8-145,112-203.1,136.1
			c-50.8,20.8-113.6,39.6-140.8,41.4c-6.8,0.6-23.9,2.5-38,4.1c-207,26.1-435-32.2-567.6-145.2c-93.7-80-176.6-210-229.1-359.6
			c-25.5-72.1-44.1-139.3-49.3-177.5c-1.9-15.5-6.1-45.9-9.2-67.3c-6.7-48.5-10.2-92.2-11.5-136.8c-1.4-58.5,1.4-94.6,13.2-165.3
			c19.9-120.7,21.9-149.1,17.6-247.7c-3.3-79-12.2-162-26.8-256.4c-8.3-53.4-46.3-219.7-56.1-245.4
			c-16.5-42.8-39.1-81.4-104.2-177.4c-62.2-91.6-83.8-126.5-104.4-169.1c-12.9-27-13.9-29.3-22-54.9
			c-32.6-104.1,0.5-182.5,119.9-283.1c35-29.4,125.4-98.8,166.9-128.1c28.9-20.3,59.3-39.5,90.6-58.2c0,0.3,0,0.5,0.1,0.8
			c3.6,27.5,26.5,44.7,53.4,44.3c9.8-0.2,19.2-2.2,28.4-4.8c-36.7,22.6-69,42.9-82.2,51.9c-66.7,45.2-105.5,88.9-114,127.7
			c-3.3,14.8-3.1,17.5,1.8,35.1c3.8,14.6,6.9,21,13,28.6c21.9,27,61.2,37.7,120.4,32.4c26.4-2.4,118.8-22.8,169.6-37.6
			c282.5-82.3,499.9-192,688.8-347c77.8-63.9,101.6-99.3,80.2-120c-8.5-8-20.3-12.2-50.3-17.3c-52.4-9.2-114.8-12.9-170.7-9.6
			c-49.3,2.8-103.1,11.4-158.9,24.9c1.9-6.7,2.6-13.6,1.6-20.4c0.1-0.1,0.2-0.2,0.2-0.3c3.6-5.5,3.2-11.7,0.5-16.8
			c19.8-4.2,39.8-7.3,64.8-10.5c134.3-16.4,248-11.3,317.1,14.9c43.4,16.4,57.4,35.1,77.9,104.6c24,81,78.4,238,99.1,286.2
			c31.8,73.6,58.3,114.8,107.4,167.2c100.9,107.4,208.4,208.7,441.8,416.1c146.4,130.2,178.6,159,251.1,226.1
			c31.9,29.6,79.1,72.7,104.7,95.9c96.6,87.9,143.9,135.4,184.5,186c47.7,59.4,75,108.3,98.8,175.9c27.9,79.8,30.2,88.5,38.5,152.3
			C2790.2,11473.8,2778.8,11575,2739.6,11648.3z M1670.6,10196.3c-4.4-27.3-14.8-43.6-59.8-92.4c-31-33.7-43.9-52.9-70.2-105.2
			c-40.1-79.8-76.7-181.2-105.6-293.5c-7.5-29.6-14.7-54.3-15.7-54.7c-1.2-0.2-11.5,7.2-23.3,16.9
			c-262.8,216.8-607.5,386.9-935.2,461.9c-130.8,29.9-269.5,45.3-383.9,42.8c-22.3-0.7-23.2,0.5-17,19.6
			c6.5,20.4,23.1,59.7,33.6,80.4c15.3,29.7,35,62.3,81.7,134.4c61.1,94.8,85.8,139.4,105.6,190.5c4,10.6,13.8,47.1,23.4,88
			c18.3,78.1,23.5,92.6,41.9,116.5c23.9,30.7,68.2,45.3,130.5,42.5c42.7-1.9,88.3-11,201.7-40.6c88.1-22.9,145.5-39,192.7-54.4
			c199.9-65.3,375-151.7,517.3-255.2c30.4-22.2,205.7-166.9,225.5-186.2c18.1-17.7,30.8-33.8,42.9-54.5
			C1670,10230.1,1673.7,10214.9,1670.6,10196.3z M2703.7,11281.9c-8.6-38.8-12.3-51.8-19-66c-44.2-95.5-111.2-198-173.9-265.5
			c-25.1-27-167.8-171.4-225.9-228.7c-106.4-104.6-199.9-187.7-275.1-244.7c-31.5-23.7-71.4-55.4-106.4-84.3
			c-79-65.4-136.6-99.3-178.6-105.6c-19.8-2.9-43.4,2.6-56.1,12.8c-12.1,9.7-24.1,28.6-26.7,41.6c-4,19.6,5.3,43.3,26.2,67.1
			c19.3,22.1,75.8,78.6,138.5,138.9c119.4,114.9,171.7,167.1,169.8,169.8c-2,3.4-33.8-11.6-57.2-27.3
			c-31.3-20.7-55.9-43.7-117.8-110c-56.2-60.2-73.7-77.2-102.6-100.1c-32.6-25.7-66.5-44-94.9-51.1c-77-19.3-187.8,58.8-201.3,141.9
			c-2.2,12.7-1.6,20.2,2,41c12.1,65.2,46.2,124.5,128.4,222.6c0.6,0.8,0.1,1.6-1,1.8c-4.6,1.1-40-29.6-53.7-46.5
			c-7.7-9.5-27.7-39.3-43.9-66c-31.1-50.5-53.5-79.5-71.3-93.2c-47.8-36.6-85.8-33.4-179,14.4c-11.2,5.6-36.6,17.6-56.6,26.8
			c-59.9,27.5-88.4,47-104.9,71.5c-16.6,25-16.7,47.9-0.9,107.2c14.8,55.6,25.9,126.4,29.6,188.7c1.1,20,2,54.2,1.1,54.4
			c0,0-9.7-41.6-21.4-92.6c-19.6-84.7-22.4-94.9-33.3-122.4c-14.4-35.7-30.8-64-44.9-77.6c-37.1-35.3-135-29.1-214.2,13.9
			c-18.5,10-40.1,27.4-50.2,40.5c-13.5,17.4-14.2,27.7-5.8,88.7c17.4,124.4,24.6,178.3,24,179.4c-3.4,5.4-26.6-60.1-36.2-101.7
			c-11.4-49.7-29.4-94.3-46.5-115.5c-23.5-29-78.4-49.6-111.3-42.1c-30.2,7.1-42.7,30-41.6,76.1c0.5,25.3,4.3,47.9,21.1,123.4
			c21.7,97.9,24.9,138.2,22,268.8c-1.6,66.8-2.4,77.1-4.9,58.1c-0.8-6.7-4.3-32.9-7.5-58.2c-23.3-178.4-44.3-302.7-58.8-347.8
			c-10.6-33.1-28.1-72.4-37.9-84.9c-20.5-26.2-38.2-18-43.6,19.9c-6.1,41.7-5.2,89,3.2,171.2c11.2,109.7,10.8,138.1-4.1,271.6
			c-11.4,100.6-13.4,125-14.4,167c-1.8,85.7,6,160.5,26.5,249.8c35.3,154.2,95.4,282.2,185.2,394.5c44.5,55.5,80.4,88.6,134.5,123.5
			c59.7,38.4,121,64.5,194,82.4c103.5,25.2,199.1,28.7,312.7,11.5c23-3.4,97.1-23.1,121.7-32.2c58.9-21.8,105.7-46.8,155.1-82.7
			c14.6-10.7,39.2-28.1,54.3-38.9c35.4-24.7,60-45.1,74.1-61c13.1-14.5,27.1-38.7,25.2-42.9c-0.8-1.7-10.2-4.3-20.8-6.1
			c-48.8-8-95-26.2-142.9-56.3c-61.9-38.9-115-87.6-169.3-155.8c-67.2-84-115.1-173.6-140.8-263.1c-5.8-20.1-15.5-52.7-21.4-72.3
			c-25.9-85.1-27.7-137.3-5.8-167.6c7.9-10.8,8.3-10,13.4,27.4c17.8,126.4,59.6,256.8,116.1,361.4c83.1,154.6,195.4,254.8,319.2,285
			c128.1,31.1,309.7,7.6,433.2-56.4c144.9-74.9,195.4-182.1,167.1-355c-9.3-56.7-34.5-137.8-56.1-181
			c-34.2-67.8-77.4-116.9-193.4-219.7c-74.6-66.2-130.3-121.2-139.9-138.1c-2.4-4.3-2.1-4.4,4.3-3.5c50.2,7,117.3,48.1,187.4,114.8
			c90.8,86.7,165,192.1,192.9,274.2c7.1,21,10.2,35.5,19.3,90.3c20.9,125.7,34.8,158.5,79.8,186.9c24.8,15.5,56.8,23.4,97.5,24.3
			c47,0.8,74.6-2.3,119-13.8c35.1-8.9,41.7-11.4,63.9-22.9c98-51.4,154.5-148.1,167.5-285.7
			C2726.2,11428.5,2721.3,11360.9,2703.7,11281.9z"/>
	</g>
</g>
<g id="Calque_2_00000112606430732322995660000001912687617425260682_">
	<g>
		<path class="st2" d="M-838,299.7c11.4,13.4,27.7,23.6,41.8,30.8c0.1,0,0.1,0,0.2,0c2.2-0.2,4.3,0.2,6.5,0c0.2,0,0.5,0,0.7,0
			c-8.5-6.1-15-12.2-15-12.2c-21-16,10.9-15,10.9-15c26.2,1.2,64.2,12,99.5,35.3l0.9-1.9C-754.1,287.9-838,299.7-838,299.7z"/>
		<g>
			<path class="st3" d="M-779.2,116.8c-2.6-17.2,8.9-37.7,28-36.5c-2,0.8-4,1.4-5.8,2.4C-770.4,88.7-776,103.2-779.2,116.8
				L-779.2,116.8z"/>
		</g>
		<g>
			<path class="st3" d="M-612.6,124.4c2.7,4,3.5,9.1,3.4,13.9c-0.4,12.2-7.2,23.3-15.8,31.8c-6.5,5.7-6.6,6-1.5-1.3
				C-617.6,155.8-609,140.5-612.6,124.4L-612.6,124.4z"/>
		</g>
		<g>
			<path class="st4" d="M-585.9,129.3c-5.1-10.2-12.5-20.3-23.3-24.6c-10.7-4.4-23.4-1.6-32.7,4.7l-1,0.7c-1.9-5.9-5-11.8-9.9-15.6
				c-4.5-3.7-10.2-5.6-15.9-6.7c-12-2.2-24.5-2-36.5-4.8c-23.7-21.6-55.9-26.2-84.5-11.8c-11.2,6.5-20.5,16.1-26.7,27.6
				c-10.3,19.4-11.8,42.6-8.5,64.1c0.7,4.4,1.6,8.8,2.8,12.9c1.4,6.8,2.5,13.5,3.2,20.3c2.1,20.5,2.1,41.6-2.5,61.8
				c-3.7,6.7-7.2,13.5-10.3,20.5c-2.4,5.9-5.2,12-5.5,18.4c0,0.5,0.1,1,0.2,1.4l0,0c-0.1-0.1,0,0-0.3-0.2l0.6,0.6
				c6,8.5,14.8,14.8,23.8,19.9c5.5,3.2,10.6,7.1,16.1,10.3l-1.9-0.1c1-0.4,2.2-0.1,2.9,0.5c-0.1-0.1-0.5-0.2-0.7-0.2
				c1.9-0.3,4.3,0.5,5.9,1.1l2.1,0.7l-0.3-0.1c4.4,1,8.8,1.9,13.2,3.1c6.4,1.8,13.2,3.7,19.6,5.7c5.8,2,14,4.1,19,4.9
				c1.9,0.1,3.9,0.1,5.8,0c9.5-0.2,19.5-0.7,28.5-3.7c2.8-1.1,5.9-2.3,7.5-4.8l0,0v0.2v0.8c-0.4-3,0.1-5.6,0.4-8.4
				c1.1-7.5,2.8-15,4.3-22.4l1.7-7.5c0.6-2.5,1-5.7,2.4-8c0.6-1,1.6-2.3,2.4-3.3c5.2-7,10.9-14.2,16.4-20.9c3.2-3.9,6.6-7.8,10-11.5
				c20.1-22.5,39.3-45.9,58.3-69.5C-586.3,170.4-581.3,148.7-585.9,129.3L-585.9,129.3z M-585.5,129.1c4.8,19.9,0,41.5-12.6,57.5
				c-12.1,16.1-24.4,32.1-36.9,48c-9.2,12-19.3,23.3-28.9,35c-4.4,5.7-9.4,12.1-13.8,17.9c-0.8,1-2.7,3.6-3.4,4.5
				c-0.6,0.7-1.2,1.6-1.4,2.5c-0.1,0.2-0.1,0.4-0.2,0.7l-0.2,0.9c-2,8.4-3.8,17.4-5.3,25.8c-0.8,4.2-1.5,8.4-1.8,12.7
				c-0.1,0.8,0,1.2,0.2,1.7v0.3c-0.4,2.8-2.9,5-5,6.4c-5.5,3.4-11.9,4.6-18,5.5c-7.1,0.9-14.1,1.1-21.2,1c-0.9,0-2.4,0-3.3-0.1
				c-5.6-1.1-11.3-2.5-16.8-4.4c-11.7-3.9-23.7-7.4-35.8-10.1l-2.1-0.8c-1.6-0.7-2.4-1-3.9-0.9c-0.3,0-0.8,0-1-0.1
				c-0.3-0.1-0.5-0.2-0.7-0.3c-0.3-0.2-0.5-0.3-0.4-0.3c0,0,0.2,0.1,0.5,0.1s0.6,0,0.8-0.1l-1.9-0.1c-3.8-2.2-7.1-4.8-10.7-7.2
				c-3.1-2.1-7.5-4.9-10.7-6.9c-7.3-4.8-14.1-10.7-19.1-17.9c-3.4-4.1,2.1-16.9,5.1-23.5c3.3-7,7-13.7,10.7-20.3
				c0.3-1.7,1.6-6.7,2-9.6c3.9-23.4,2.7-48.1-1.9-71.1c-10.2-38.1-5.5-84.6,30.5-107.6c20.1-11.9,46.1-13.8,67.5-4.2
				c8.4,3.7,16,8.9,22.7,15l-0.9-0.5c23.2,5.9,53.7,0.2,62.1,29.3l-1.3-0.5c5.1-3.3,10.7-5.3,16.6-6.1
				C-607.1,98.8-593.2,112.9-585.5,129.1L-585.5,129.1z"/>
		</g>
		<g>
			<path class="st3" d="M-642.3,108.6c0.6,8.7-0.2,17.6-0.4,26.2c-0.9,4.6-3,8.8-5.2,12.9c-5.3,9.9-12.7,18.4-20.7,25.9
				c-1.7,1.5-3.3,2.9-5,4.4l-0.3-0.4l4.5-4.8c4.3-4.8,8.4-10.1,11.8-15.6c4.5-7.1,8.5-14.8,9.8-23.1c-0.2-4.8,1.5-13.5,3-19.3
				c0.5-2.1,1.2-4.2,2-6.3L-642.3,108.6L-642.3,108.6z"/>
		</g>
		<g>
			<path class="st3" d="M-692,83.4c-8.8,0.7-16.9,3.1-24.3,6.9c-3.7,1.8-7.6,3.9-10.7,7c-4.2,4.2-6.8,9.8-8.6,15.5
				c-5.2,14.9-6.9,30.6-10,46h-0.5c-1.2-7.2-1.2-14.5-0.6-21.8c1.2-10.6,4.4-21.2,10.4-30.1c2.6-3.8,5.3-7.3,8.2-10.6
				c6.1-7.7,12.6-13,22.7-14.4c4.5-0.6,9.2-0.5,13.5,1C-691.9,82.9-692,83.4-692,83.4L-692,83.4z"/>
		</g>
		<g>
			<path class="st4" d="M-811.2,225.7c-0.1-1.2,0.3-2.5,0.5-3.6c0.3-1.7,1.2-6.3,1.6-8.1c1.3-7.1,2.6-14.3,3.1-21.6
				c0.1-3.6,0.5-7.3-0.9-10.8c1.9,3.1,2.2,7,2.6,10.7c0.7,7.4,0.6,14.8,0.5,22.2c-0.1,2.5-0.3,7.1-0.4,9.6v0.7c0,0.1,0,0.2,0,0.3
				c0,0.3,0-0.4,0-0.5C-804.4,224.7-811.2,225.7-811.2,225.7L-811.2,225.7z"/>
		</g>
		<g>
			<path class="st4" d="M-787.8,225.9c0-10.4,0.9-20.9,3.9-30.9c-0.6,10.1,0.8,20.2,3.1,30C-780.9,225-787.8,225.9-787.8,225.9
				L-787.8,225.9z"/>
		</g>
		<g>
			<path class="st4" d="M-757.3,229.9c4.1-11.8,7.9-23.8,8-36.5c0.9,6.3,1,12.7,0.5,19c-0.5,6.4-1.5,12.7-2.6,19
				C-751.5,231.4-757.3,229.9-757.3,229.9L-757.3,229.9z"/>
		</g>
		<g>
			<path class="st4" d="M-715.4,243.9c3.7-10.5,8.6-20.6,15.1-29.6c-3.8,7.2-6.6,15-8.5,22.9c-0.6,2.6-1.2,5.2-1.8,7.9L-715.4,243.9
				L-715.4,243.9z"/>
		</g>
		<g>
			<path class="st4" d="M-688.9,259.7c0,0,0.1-0.2,0.2-0.1c0,0.1,0.1,0.3,0.1,0.3c-0.2-0.7-0.8-2.6-0.5-3.6c0.3-2.3,1.3-3.6,2.3-5.4
				c0.1-0.1,0.3-0.4,0.4-0.5c3.9-4.2,12-12.5,16.1-16.5c5.4-5.5,11.1-10.9,17.6-15.1c-5.9,5-10.6,11-15.3,17.1
				c-3.9,5.3-10,12.9-14.4,18l0.4-0.5c-0.4,0.9-1,2.5-0.9,3.3c0.1,0.2,0.1-0.1,0.5,0.9c0.6,1.3,0.6,3.3,0,4.7
				C-682.3,262.2-688.9,259.7-688.9,259.7L-688.9,259.7z"/>
		</g>
		<path class="st5" d="M-819.4,239.3c-0.9,7-1.1,14.7-4.5,21.2c-3.7,7.1-7.7,13.8-10.9,21.1c-3,6.9-6.4,13.6-1.4,20.7
			c4.1,5.7,10.8,10.5,16.4,14.5c6.6,4.8,13.7,9,20.7,13"/>
		<g>
			<path class="st4" d="M-818.6,227.7c0,0,18.7-8.6,57.6,2.6c0,0,33.1-0.3,91.5,42.6l1-1.3c-19.3-10.7-13.8-21.9-13.8-21.9
				c-4.4,2.9-12.7,4.7-17.2,2.3c-7.1-4.7-10-18.4-10-18.4c-5.2,6.6-19.7,3.9-23.9,2.2c-14.5-5.9-17.9-18-17.9-18
				c-1.2,2.1-3.8,4.1-6.2,5.7c-3.8,2.5-10.6,3.7-15.1,2.8c-13.3-3-12.5-9.7-12.5-9.7c-2,3.8-7.7,6.7-7.7,6.7
				c-9,1.7-13.3-12.9-13.1-14.1c-2,4-5.8,10.8-5.8,10.8c-2.5,7.8-6.6,0.9-6.6,0.9L-818.6,227.7z"/>
			<path class="st4" d="M-818.4,227.5c0-0.1-0.2-0.1-0.2-0.1l0,0c1.1-0.5,2.2-1,3.4-1.4c17.8-5.5,37.2-2.7,55,1.9l-0.7-0.1
				c8.8,0.3,17.4,2.7,25.7,5.5c16.3,5.7,31.1,14.8,45.3,24.2c6.3,4.1,14.8,10.2,21,14.6l-1.3,0.2c0.3-0.4,0.7-0.9,1-1.4l0.3,1.5
				c-2.1-1.1-4.2-2.4-6.1-3.9c-5.4-3.9-10.5-10.4-9.2-17.5c0.1-0.8,0.3-1.3,0.6-2.1l2.3,2c-1.4,0.9-2.9,1.7-4.3,2.3
				c-4.8,1.7-10.1,2.8-15,0.4c-6.6-4.5-9.4-12.3-11.4-19.7l4.7,1.2c-5.1,6.2-13.6,5.8-20.8,4.9c-6.9-0.9-13.6-4.4-18.7-9.3
				c-3.4-3.4-6.2-7.5-7.8-12.1l5.8,0.7c-5.8,8.4-16.9,11.9-26.3,9.3c-5.8-1.6-13.2-5.5-12.9-12.5l5,1.6c-1.1,2-2.7,3.5-4.2,4.6
				c-1.7,1.3-3.3,2.3-5.2,3.3h-0.3c-8.8,1.3-13.7-8.3-15.3-15.5l-0.1-0.4v-0.3c0-0.1,0-0.3,0-0.5l3.3,1c-1.9,3.3-4.6,8-6.2,10.4
				c-0.5,1.3-1.1,2.6-2.2,3.6c-2.3,2-5-0.7-6.1-2.7l1.3-0.3C-817.8,223.1-818.3,225.2-818.4,227.5L-818.4,227.5z M-818.8,228
				c-0.2-3-0.4-6.4-0.4-9.4c0.8,1.1,1.8,2.7,2.9,3.5c2.1,1.8,2.9-0.9,3.3-2.6c1.8-3.8,3.7-7.4,5.4-11.2l3.3,1v-0.2
				c0.2,0.7,0.3,1.3,0.7,2c1.7,4.3,5,10.7,10.4,9.7l-0.7,0.2c2.4-1.4,5.3-3.6,6.4-5.9l5,1.6c0-0.2,0-0.1,0-0.1l0,0
				c0.9,3.9,5.6,5.2,9,6.1c4.2,1.2,9,0.3,12.9-1.5c2.3-1.2,5.1-3.4,6.4-5.3l3.5-5.9l2.3,6.6l0.2,0.5c1.3,3.4,3.4,6.3,5.9,8.8
				c4.1,4.2,9.2,7.1,15.1,8.1c5,0.8,11.8,1.4,15.5-2.4l3.7-4.5l1.1,5.6c1.2,5.9,4,13.7,8.3,17c4.7,2.3,11,0.8,15.4-1.7l5-3.1l-2.8,5
				c-3.1,9,5.9,16.3,12.8,20.3l1.1,0.7c-0.9,0.9-1.6,1.9-2.4,2.9c-3.4-2.5-7.7-5.6-11.1-7.9c-17.5-11.8-36.7-21-56.7-27.9
				c-8-2.7-16.3-5-24.7-5.7c-16.1-4.8-33-8.1-49.7-6.2c-2.3,0.3-4.6,0.6-6.9,1.4C-818.4,228-818.6,228-818.8,228L-818.8,228z"/>
		</g>
	</g>
	<g class="st6">
		<path class="st3" d="M-726.2,441.9c0,13.3-4,24.6-12,34.2c-8.5,10-19.2,15-32.2,15c-4.9,0-12.2-0.1-22-0.3s-17.1-0.3-22-0.3
			c-3.6,0-9,0.2-16.2,0.5s-12.6,0.5-16.2,0.5c-1.9,0-2.9-0.9-2.9-2.6c0-8.4,0.4-21,1.2-37.8s1.2-29.4,1.2-37.8
			c0-8.8-0.4-22.1-1.2-39.8s-1.2-31-1.2-39.8c0-1.7,1-2.5,2.9-2.5c6.8,0,17,0,30.6,0.1s23.9,0.1,30.7,0.1c16,0,28.8,3,38.3,8.9
			c11.6,7.2,17.4,18.5,17.4,33.7c0,5.3-1.5,10.7-4.6,16.4c-3,5.7-6.7,10-11.1,12.9c-2.2,1.4-3.3,2.4-3.3,2.9s1.1,1.3,3.3,2.5
			c5.8,3.2,10.4,7.9,13.9,14.1C-728,428.7-726.2,435.2-726.2,441.9z M-758.3,376.3c0-10.7-4.8-18-14.4-21.7
			c-5.8-2.2-15.3-3.3-28.5-3.3c-12.8,0-19.2,1-19.2,2.9c0,2.5-0.1,6.3-0.3,11.3s-0.3,8.8-0.3,11.4c0,1.8,0,4.5,0.1,8.1
			c0.1,3.7,0.1,6.4,0.1,8.2c0,2.2,8.6,3.3,25.8,3.3C-770.5,396.5-758.3,389.8-758.3,376.3z M-755.2,440.8c0-9.3-4.2-15.6-12.5-18.9
			c-5.3-2.1-13.4-3.2-24.6-3.2c-19.2,0-28.8,1-28.8,3.1v18.7c0,2.7,0.1,6.9,0.2,12.6c0.2,5.6,0.2,9.9,0.2,12.7
			c0,0.8,2.4,1.3,7.3,1.7c4.9,0.4,12.1,0.6,21.7,0.6c12,0,20.7-1.6,25.9-4.7C-758.7,459.3-755.2,451.7-755.2,440.8z"/>
	</g>
	<g class="st6">
		<path class="st3" d="M-676.1,387.9c-2.5,5.7-6.3,11.5-11.6,17.6c-1.5,0-3.1-0.2-4.7-0.7c-1.6-0.5-2.8-1.1-3.6-2
			c3.4-4.7,5.7-8.3,6.6-10.9c1-2.6,1.4-5.6,1.4-9.2c0-6.1-3.2-9.5-9.7-10.3c0-1.7,0.1-3.8,0.4-6.3c0.3-2.6,0.7-4.6,1.2-6.1
			c6.6-1.4,12.1-3.4,16.6-6.2c4.7,1.8,7,6.8,7,14.9C-672.4,375.9-673.7,382.3-676.1,387.9z"/>
	</g>
</g>
<g id="Calque_2_00000074408394312520380460000001200391054636656292_">
	<g>
		<path class="st2" d="M54.7,275.9c11.4,13.4,27.7,23.6,41.8,30.8c0.1,0,0.1,0,0.2,0c2.2-0.2,4.3,0.2,6.5,0c0.2,0,0.5,0,0.7,0
			c-8.5-6.1-15-12.2-15-12.2c-21-16,10.9-15,10.9-15c26.2,1.2,64.2,12,99.5,35.3l0.9-1.9C138.7,264.2,54.7,275.9,54.7,275.9z"/>
		<g>
			<path class="st3" d="M113.6,93c-2.6-17.2,8.9-37.7,28-36.5c-2,0.8-4,1.4-5.8,2.4C122.4,64.9,116.8,79.4,113.6,93L113.6,93z"/>
		</g>
		<g>
			<path class="st3" d="M280.2,100.6c2.7,4,3.5,9.1,3.4,13.9c-0.4,12.2-7.2,23.3-15.8,31.8c-6.5,5.7-6.6,6-1.5-1.3
				C275.2,132,283.8,116.7,280.2,100.6L280.2,100.6z"/>
		</g>
		<g>
			<path class="st4" d="M306.9,105.5c-5.1-10.2-12.5-20.3-23.3-24.6c-10.7-4.4-23.4-1.6-32.7,4.7l-1,0.7c-1.9-5.9-5-11.8-9.9-15.6
				c-4.5-3.7-10.2-5.6-15.9-6.7c-12-2.2-24.5-2-36.5-4.8c-23.7-21.6-55.9-26.2-84.5-11.8C91.9,53.9,82.6,63.5,76.4,75
				c-10.3,19.4-11.8,42.6-8.5,64.1c0.7,4.4,1.6,8.8,2.8,12.9c1.4,6.8,2.5,13.5,3.2,20.3c2.1,20.5,2.1,41.6-2.5,61.8
				c-3.7,6.7-7.2,13.5-10.3,20.5c-2.4,5.9-5.2,12-5.5,18.4c0,0.5,0.1,1,0.2,1.4l0,0c-0.1-0.1,0,0-0.3-0.2l0.6,0.6
				c6,8.5,14.8,14.8,23.8,19.9c5.5,3.2,10.6,7.1,16.1,10.3l-1.9-0.1c1-0.4,2.2-0.1,2.9,0.5c-0.1-0.1-0.5-0.2-0.7-0.2
				c1.9-0.3,4.3,0.5,5.9,1.1l2.1,0.7l-0.3-0.1c4.4,1,8.8,1.9,13.2,3.1c6.4,1.8,13.2,3.7,19.6,5.7c5.8,2,14,4.1,19,4.9
				c1.9,0.1,3.9,0.1,5.8,0c9.5-0.2,19.5-0.7,28.5-3.7c2.8-1.1,5.9-2.3,7.5-4.8l0,0v0.2v0.8c-0.4-3,0.1-5.6,0.4-8.4
				c1.1-7.5,2.8-15,4.3-22.4l1.7-7.5c0.6-2.5,1-5.7,2.4-8c0.6-1,1.6-2.3,2.4-3.3c5.2-7,10.9-14.2,16.4-20.9c3.2-3.9,6.6-7.8,10-11.5
				c20.1-22.5,39.3-45.9,58.3-69.5C306.5,146.6,311.5,124.9,306.9,105.5L306.9,105.5z M307.3,105.3c4.8,19.9,0,41.5-12.6,57.5
				c-12.1,16.1-24.4,32.1-36.9,48c-9.2,12-19.3,23.3-28.9,35c-4.4,5.7-9.4,12.1-13.8,17.9c-0.8,1-2.7,3.6-3.4,4.5
				c-0.6,0.7-1.2,1.6-1.4,2.5c-0.1,0.2-0.1,0.4-0.2,0.7l-0.2,0.9c-2,8.4-3.8,17.4-5.3,25.8c-0.8,4.2-1.5,8.4-1.8,12.7
				c-0.1,0.8,0,1.2,0.2,1.7v0.3c-0.4,2.8-2.9,5-5,6.4c-5.5,3.4-11.9,4.6-18,5.5c-7.1,0.9-14.1,1.1-21.2,1c-0.9,0-2.4,0-3.3-0.1
				c-5.6-1.1-11.3-2.5-16.8-4.4c-11.7-3.9-23.7-7.4-35.8-10.1l-2.1-0.8c-1.6-0.7-2.4-1-3.9-0.9c-0.3,0-0.8,0-1-0.1
				c-0.3-0.1-0.5-0.2-0.7-0.3c-0.3-0.2-0.5-0.3-0.4-0.3c0,0,0.2,0.1,0.5,0.1s0.6,0,0.8-0.1l-1.9-0.1c-3.8-2.2-7.1-4.8-10.7-7.2
				c-3.1-2.1-7.5-4.9-10.7-6.9c-7.3-4.8-14.1-10.7-19.1-17.9c-3.4-4.1,2.1-16.9,5.1-23.5c3.3-7,7-13.7,10.7-20.3
				c0.3-1.7,1.6-6.7,2-9.6c3.9-23.4,2.7-48.1-1.9-71.1C59.4,114,64.1,67.5,100.1,44.5c20.1-11.9,46.1-13.8,67.5-4.2
				c8.4,3.7,16,8.9,22.7,15l-0.9-0.5c23.2,5.9,53.7,0.2,62.1,29.3l-1.3-0.5c5.1-3.3,10.7-5.3,16.6-6.1
				C285.7,75,299.6,89.1,307.3,105.3L307.3,105.3z"/>
		</g>
		<g>
			<path class="st3" d="M250.5,84.8c0.6,8.7-0.2,17.6-0.4,26.2c-0.9,4.6-3,8.8-5.2,12.9c-5.3,9.9-12.7,18.4-20.7,25.9
				c-1.7,1.5-3.3,2.9-5,4.4l-0.3-0.4l4.5-4.8c4.3-4.8,8.4-10.1,11.8-15.6c4.5-7.1,8.5-14.8,9.8-23.1c-0.2-4.8,1.5-13.5,3-19.3
				c0.5-2.1,1.2-4.2,2-6.3L250.5,84.8L250.5,84.8z"/>
		</g>
		<g>
			<path class="st3" d="M200.8,59.6c-8.8,0.7-16.9,3.1-24.3,6.9c-3.7,1.8-7.6,3.9-10.7,7c-4.2,4.2-6.8,9.8-8.6,15.5
				c-5.2,14.9-6.9,30.6-10,46h-0.5c-1.2-7.2-1.2-14.5-0.6-21.8c1.2-10.6,4.4-21.2,10.4-30.1c2.6-3.8,5.3-7.3,8.2-10.6
				c6.1-7.7,12.6-13,22.7-14.4c4.5-0.6,9.2-0.5,13.5,1L200.8,59.6L200.8,59.6z"/>
		</g>
		<g>
			<path class="st4" d="M81.6,201.9c-0.1-1.2,0.3-2.5,0.5-3.6c0.3-1.7,1.2-6.3,1.6-8.1c1.3-7.1,2.6-14.3,3.1-21.6
				c0.1-3.6,0.5-7.3-0.9-10.8c1.9,3.1,2.2,7,2.6,10.7c0.7,7.4,0.6,14.8,0.5,22.2c-0.1,2.5-0.3,7.1-0.4,9.6v0.7c0,0.1,0,0.2,0,0.3
				c0,0.3,0-0.4,0-0.5C88.4,200.9,81.6,201.9,81.6,201.9L81.6,201.9z"/>
		</g>
		<g>
			<path class="st4" d="M105,202.1c0-10.4,0.9-20.9,3.9-30.9c-0.6,10.1,0.8,20.2,3.1,30C111.9,201.2,105,202.1,105,202.1L105,202.1z
				"/>
		</g>
		<g>
			<path class="st4" d="M135.5,206.1c4.1-11.8,7.9-23.8,8-36.5c0.9,6.3,1,12.7,0.5,19c-0.5,6.4-1.5,12.7-2.6,19
				C141.3,207.6,135.5,206.1,135.5,206.1L135.5,206.1z"/>
		</g>
		<g>
			<path class="st4" d="M177.4,220.1c3.7-10.5,8.6-20.6,15.1-29.6c-3.8,7.2-6.6,15-8.5,22.9c-0.6,2.6-1.2,5.2-1.8,7.9L177.4,220.1
				L177.4,220.1z"/>
		</g>
		<g>
			<path class="st4" d="M203.9,235.9c0,0,0.1-0.2,0.2-0.1c0,0.1,0.1,0.3,0.1,0.3c-0.2-0.7-0.8-2.6-0.5-3.6c0.3-2.3,1.3-3.6,2.3-5.4
				c0.1-0.1,0.3-0.4,0.4-0.5c3.9-4.2,12-12.5,16.1-16.5c5.4-5.5,11.1-10.9,17.6-15.1c-5.9,5-10.6,11-15.3,17.1
				c-3.9,5.3-10,12.9-14.4,18l0.4-0.5c-0.4,0.9-1,2.5-0.9,3.3c0.1,0.2,0.1-0.1,0.5,0.9c0.6,1.3,0.6,3.3,0,4.7
				C210.5,238.4,203.9,235.9,203.9,235.9L203.9,235.9z"/>
		</g>
		<g>
			<path class="st4" d="M74.2,203.9c0,0,18.7-8.6,57.6,2.6c0,0,33.1-0.3,91.5,42.6l1-1.3c-19.3-10.7-13.8-21.9-13.8-21.9
				c-4.4,2.9-12.7,4.7-17.2,2.3c-7.1-4.7-10-18.4-10-18.4c-5.2,6.6-19.7,3.9-23.9,2.2c-14.5-5.9-17.9-18-17.9-18
				c-1.2,2.1-3.8,4.1-6.2,5.7c-3.8,2.5-10.6,3.7-15.1,2.8c-13.3-3-12.5-9.7-12.5-9.7c-2,3.8-7.7,6.7-7.7,6.7
				c-9,1.7-13.3-12.9-13.1-14.1c-2,4-5.8,10.8-5.8,10.8c-2.5,7.8-6.6,0.9-6.6,0.9L74.2,203.9z"/>
			<path class="st4" d="M74.4,203.7c0-0.1-0.2-0.1-0.2-0.1l0,0c1.1-0.5,2.2-1,3.4-1.4c17.8-5.5,37.2-2.7,55,1.9l-0.7-0.1
				c8.8,0.3,17.4,2.7,25.7,5.5c16.3,5.7,31.1,14.8,45.3,24.2c6.3,4.1,14.8,10.2,21,14.6l-1.3,0.2c0.3-0.4,0.7-0.9,1-1.4l0.3,1.5
				c-2.1-1.1-4.2-2.4-6.1-3.9c-5.4-3.9-10.5-10.4-9.2-17.5c0.1-0.8,0.3-1.3,0.6-2.1l2.3,2c-1.4,0.9-2.9,1.7-4.3,2.3
				c-4.8,1.7-10.1,2.8-15,0.4c-6.6-4.5-9.4-12.3-11.4-19.7l4.7,1.2c-5.1,6.2-13.6,5.8-20.8,4.9c-6.9-0.9-13.6-4.4-18.7-9.3
				c-3.4-3.4-6.2-7.5-7.8-12.1l5.8,0.7c-5.8,8.4-16.9,11.9-26.3,9.3c-5.8-1.6-13.2-5.5-12.9-12.5l5,1.6c-1.1,2-2.7,3.5-4.2,4.6
				c-1.7,1.3-3.3,2.3-5.2,3.3h-0.3c-8.8,1.3-13.7-8.3-15.3-15.5l-0.1-0.4v-0.3c0-0.1,0-0.3,0-0.5l3.3,1c-1.9,3.3-4.6,8-6.2,10.4
				c-0.5,1.3-1.1,2.6-2.2,3.6c-2.3,2-5-0.7-6.1-2.7l1.3-0.3C75,199.3,74.5,201.4,74.4,203.7L74.4,203.7z M74,204.3
				c-0.2-3-0.4-6.4-0.4-9.4c0.8,1.1,1.8,2.7,2.9,3.5c2.1,1.8,2.9-0.9,3.3-2.6c1.8-3.8,3.7-7.4,5.4-11.2l3.3,1v-0.2
				c0.2,0.7,0.3,1.3,0.7,2c1.7,4.3,5,10.7,10.4,9.7l-0.7,0.2c2.4-1.4,5.3-3.6,6.4-5.9l5,1.6c0-0.2,0-0.1,0-0.1l0,0
				c0.9,3.9,5.6,5.2,9,6.1c4.2,1.2,9,0.3,12.9-1.5c2.3-1.2,5.1-3.4,6.4-5.3l3.5-5.9l2.3,6.6l0.2,0.5c1.3,3.4,3.4,6.3,5.9,8.8
				c4.1,4.2,9.2,7.1,15.1,8.1c5,0.8,11.8,1.4,15.5-2.4l3.7-4.5l1.1,5.6c1.2,5.9,4,13.7,8.3,17c4.7,2.3,11,0.8,15.4-1.7l5-3.1l-2.8,5
				c-3.1,9,5.9,16.3,12.8,20.3l1.1,0.7c-0.9,0.9-1.6,1.9-2.4,2.9c-3.4-2.5-7.7-5.6-11.1-7.9c-17.5-11.8-36.7-21-56.7-27.9
				c-8-2.7-16.3-5-24.7-5.7c-16.1-4.8-33-8.1-49.7-6.2c-2.3,0.3-4.6,0.6-6.9,1.4C74.4,204.2,74.2,204.2,74,204.3L74,204.3z"/>
		</g>
	</g>
	<g class="st6">
		<path class="st3" d="M166.6,418.1c0,13.3-4,24.6-12,34.2c-8.5,10-19.2,15-32.2,15c-4.9,0-12.2-0.1-22-0.3s-17.1-0.3-22-0.3
			c-3.6,0-9,0.2-16.2,0.5s-12.6,0.5-16.2,0.5c-1.9,0-2.9-0.9-2.9-2.6c0-8.4,0.4-21,1.2-37.8s1.2-29.4,1.2-37.8
			c0-8.8-0.4-22.1-1.2-39.8s-1.2-31-1.2-39.8c0-1.7,1-2.5,2.9-2.5c6.8,0,17,0,30.6,0.1s23.9,0.1,30.7,0.1c16,0,28.8,3,38.3,8.9
			c11.6,7.2,17.4,18.5,17.4,33.7c0,5.3-1.5,10.7-4.6,16.4c-3,5.7-6.7,10-11.1,12.9c-2.2,1.4-3.3,2.4-3.3,2.9s1.1,1.3,3.3,2.5
			c5.8,3.2,10.4,7.9,13.9,14.1C164.8,404.9,166.6,411.4,166.6,418.1z M134.5,352.5c0-10.7-4.8-18-14.4-21.7
			c-5.8-2.2-15.3-3.3-28.5-3.3c-12.8,0-19.2,1-19.2,2.9c0,2.5-0.1,6.3-0.3,11.3s-0.3,8.8-0.3,11.4c0,1.8,0,4.5,0.1,8.1
			c0.1,3.7,0.1,6.4,0.1,8.2c0,2.2,8.6,3.3,25.8,3.3C122.3,372.7,134.5,366,134.5,352.5z M137.6,417c0-9.3-4.2-15.6-12.5-18.9
			c-5.3-2.1-13.4-3.2-24.6-3.2c-19.2,0-28.8,1-28.8,3.1v18.7c0,2.7,0.1,6.9,0.2,12.6c0.2,5.6,0.2,9.9,0.2,12.7
			c0,0.8,2.4,1.3,7.3,1.7s12.1,0.6,21.7,0.6c12,0,20.7-1.6,25.9-4.7C134.1,435.5,137.6,427.9,137.6,417z"/>
	</g>
	<g class="st6">
		<path class="st3" d="M216.7,364.2c-2.5,5.7-6.3,11.5-11.6,17.6c-1.5,0-3.1-0.2-4.7-0.7s-2.8-1.1-3.6-2c3.4-4.7,5.7-8.3,6.6-10.9
			c1-2.6,1.4-5.6,1.4-9.2c0-6.1-3.2-9.5-9.7-10.3c0-1.7,0.1-3.8,0.4-6.3c0.3-2.6,0.7-4.6,1.2-6.1c6.6-1.4,12.1-3.4,16.6-6.2
			c4.7,1.8,7,6.8,7,14.9C220.4,352.1,219.1,358.5,216.7,364.2z"/>
	</g>
	<g class="st6">
		<path class="st3" d="M315.6,360.2c0,8.4-0.6,16-1.7,22.9c-0.2,1.8-1,2.6-2.3,2.6c-1.6,0-4-0.2-7.3-0.5c-3.2-0.3-5.7-0.5-7.4-0.5
			c-9.6,0-15.7,2.7-18.4,8.1c-1.6,3.3-2.4,10.1-2.4,20.5v12.6c0,4.3,0.2,10.7,0.5,19.4s0.5,15.2,0.5,19.4c0,2.1-0.9,3.1-2.6,3.1
			c-2.4,0-5.9,0-10.7-0.1c-4.8-0.1-8.4-0.1-10.7-0.1c-1.8,0-2.6-1-2.6-2.9c0-6.2,0.1-15.5,0.3-27.9s0.3-21.7,0.3-28
			c0-18.8-1.8-33.9-5.3-45.4c-0.2-0.6-0.2-1.1-0.2-1.4c0-0.9,0.5-1.6,1.5-1.9c2.8-0.3,6.8-0.8,11.9-1.4c8.2-1.5,12-2.3,11.4-2.3
			c1.2,0,2,2.2,2.4,6.7s1.1,6.7,2.1,6.7c0.2,0,0.3-0.1,0.6-0.2c3.1-2,6.2-4,9.4-5.9c3.4-2.1,6.9-3.6,10.5-4.6
			c3-0.9,6.8-1.4,11.4-1.4C312.6,357.8,315.6,358.6,315.6,360.2z"/>
		<path class="st3" d="M425,406.1c0,5.6-2.4,9.4-7.3,11.3c-3.3,1.2-26.9,3.5-70.7,6.7c1,6.7,4.7,12.4,11.1,17.1
			c6.1,4.5,12.6,6.7,19.7,6.7c12,0,23.1-3.9,33.1-11.7c1.2-1,2.4-2,3.7-3c0.6,0,1,0.1,1.2,0.2c0.2,0.2,1.6,2.8,4.3,7.9
			c2.7,5.1,4,7.9,4,8.3c0,0.5-0.6,1.3-1.8,2.6c-11.2,11.9-25.6,17.8-43.1,17.8c-17.7,0-31.8-5.3-42.3-15.8s-15.8-24.6-15.8-42.2
			c0-15.7,5-29.4,15.1-41c10.6-12.1,23.6-18.2,39-18.2c14.3,0,26.3,5.3,35.9,15.8C420.3,379.1,425,391.5,425,406.1z M397.8,399.1
			c0-6.3-2.5-11.9-7.5-16.8s-10.6-7.3-16.9-7.3c-7,0-13.2,2.8-18.7,8.5c-5.4,5.6-8.2,12-8.2,19c0,1.6,1.4,2.4,4.1,2.4
			c11.3,0,24.8-1.1,40.5-3.4C395.6,400.8,397.8,400,397.8,399.1z"/>
		<path class="st3" d="M552,364.1c0,0.3-0.1,1-0.3,2.1c-3,17.4-4.5,32.5-4.5,45.1c0,0.8,1,17.9,2.9,51.3l0.1,1.6
			c0.1,2.2-0.9,3.3-3,3.3s-5.3,0.2-9.5,0.7s-7.4,0.7-9.4,0.7c-1.4,0-2.6-2.7-3.3-8c-0.8-5.3-1.5-8-2.2-8c-0.5,0-2.5,1.5-6.2,4.5
			c-4.5,3.7-8.7,6.4-12.6,8.3c-6,3-12,4.6-18.1,4.6c-14.8,0-27.2-5.9-37.4-17.7c-9.6-11.3-14.4-24.4-14.4-39.4
			c0-16.9,4.8-30.9,14.5-41.9c10.1-11.5,23.5-17.3,40-17.3c11.7,0,21.8,4,30.5,12.1c1.3,1.5,3.3,3.7,6.1,6.6
			c0.2,0.2,0.5,0.3,0.7,0.3c0.5,0,1.1-2.4,1.9-7.2s1.9-7.2,3.2-7.2c2.1,0,5.9,0.6,11.5,1.7C548.9,361.8,552,363,552,364.1z
			 M522.9,411.8c0-9.4-2.8-17.4-8.3-24.1c-5.9-7.2-13.4-10.9-22.5-10.9s-16.8,3.6-22.9,10.7c-5.9,6.9-8.8,14.9-8.8,24.2
			c0,9.2,2.9,17.2,8.8,24c6.1,7.1,13.7,10.6,22.9,10.6c8.9,0,16.4-3.6,22.4-10.9C520.1,428.8,522.9,420.9,522.9,411.8z"/>
		<path class="st3" d="M680.5,308.1c0,9.8-0.4,24.5-1.3,44.2c-0.9,19.6-1.3,34.3-1.3,44c0,30.1,0.6,52.9,1.9,68.3l0.1,1.5
			c0.1,0.8-1,1.3-3.1,1.5c-1.4,0.2-3.5,0.2-6.2,0c-3.2-0.2-4.7-0.3-4.5-0.3c-1.1,0-2.8,0.1-5,0.3s-3.9,0.3-5,0.3s-1.7-2.6-1.9-7.9
			s-0.5-8-0.9-8.1c-0.5,0.2-1,0.7-1.7,1.5c-10.4,11.3-22.4,16.9-36,16.9c-15.4,0-28-5.9-37.9-17.6c-9.4-11-14.1-24.4-14.1-40
			c0-16.2,4.7-29.9,14.2-40.9c9.9-11.6,22.8-17.4,38.7-17.4c9.6,0,18,2.8,25.1,8.5c3.3,2.8,6.5,5.7,9.7,8.6c0.6-0.2,0.9-0.8,0.9-1.6
			v-37c0-2.5-0.1-6.3-0.3-11.4s-0.3-9-0.3-11.5c0-1.8,0.6-2.7,1.8-2.7c2.8,0,7-0.2,12.6-0.7s9.7-0.7,12.5-0.7
			C679.8,305.7,680.5,306.5,680.5,308.1z M651.9,412c0-9.1-2.8-17.2-8.5-24.1c-6-7.4-13.5-11.1-22.4-11.1c-9.4,0-17.1,3.7-23.2,11
			c-5.8,6.9-8.7,15.1-8.7,24.7c0,9.1,3,17.1,9,23.9c6.2,7.2,13.8,10.7,22.9,10.7s16.7-3.6,22.6-10.9
			C649.1,429.5,651.9,421.4,651.9,412z"/>
		<path class="st3" d="M797,387.9c0,12.9-0.4,20.6-1.1,23.3c-1,3.4-10.4,18.4-28.3,44.9c-17.9,26.5-28.5,41.3-31.8,44.4
			c-3,2.7-12.9,4.1-29.5,4.1c-2,0-3.3-0.2-3.8-0.6c-0.6-0.4-1.9-3.2-3.9-8.3s-3-8.2-3-9.1c0-1.7,2-2.5,6.1-2.5
			c8.5,0,14.8-1.2,18.9-3.7c1.4-0.8,3.4-3.5,6.2-7.9s4.2-7.4,4.2-8.9c0-2.1-5.5-10.1-16.6-24.1c-11.7-14.9-18.2-24.3-19.5-28.2
			c-1.1-3.1-1.6-10.6-1.6-22.4c0-2.9,0-7.3,0.1-13.1s0.1-10.2,0.1-13.2c0-1.7,0.9-2.5,2.7-2.5c2.4,0,6,0.2,10.8,0.5
			s8.4,0.5,10.8,0.5c1.2,0,1.8,0.8,1.8,2.4c0,2.1-0.1,5.3-0.3,9.6s-0.3,7.5-0.3,9.6c0,9.3,0.3,16.2,0.9,20.8
			c0.5,2.9,4.6,10.1,12.5,21.6c7.8,11.5,12.7,17.3,14.5,17.3c1.3,0,5.4-5.7,12.3-17c6.9-11.3,10.6-18.3,11.1-21
			c0.6-3.8,0.9-10.7,0.9-20.8c0-2.2-0.2-5.5-0.7-9.8s-0.7-7.5-0.7-9.7c0-1.9,0.6-2.9,1.8-2.9c2.4,0,6.1-0.2,11-0.5s8.6-0.5,11-0.5
			C795.9,360.2,797,369.4,797,387.9z"/>
	</g>
</g>
</svg>
