<svg id="Calque_1" data-name="Calque 1" xmlns="http://www.w3.org/2000/svg" viewBox="0 0 832.2 548.2"><defs><style>.cls-1,.cls-2,.cls-3{fill:#fff;}.cls-1,.cls-3{stroke:#fff;}.cls-1{stroke-linecap:round;stroke-linejoin:round;}.cls-3{stroke-miterlimit:10;}.cls-4{isolation:isolate;}</style></defs><g id="Calque_2" data-name="Calque 2"><path class="cls-1" d="M54.7,275.9c11.4,13.4,27.7,23.6,41.8,30.8h.2c2.2-.2,4.3.2,6.5,0h.7a165.25,165.25,0,0,1-15-12.2c-21-16,10.9-15,10.9-15,26.2,1.2,64.2,12,99.5,35.3l.9-1.9C138.7,264.2,54.7,275.9,54.7,275.9Z"/><path class="cls-2" d="M113.6,93c-2.6-17.2,8.9-37.7,28-36.5a50.31,50.31,0,0,0-5.8,2.4c-13.4,6-19,20.5-22.2,34.1Z"/><path class="cls-2" d="M280.2,100.6c2.7,4,3.5,9.1,3.4,13.9-.4,12.2-7.2,23.3-15.8,31.8-6.5,5.7-6.6,6-1.5-1.3,8.9-13,17.5-28.3,13.9-44.4Z"/><path class="cls-3" d="M306.9,105.5c-5.1-10.2-12.5-20.3-23.3-24.6s-23.4-1.6-32.7,4.7l-1,.7c-1.9-5.9-5-11.8-9.9-15.6-4.5-3.7-10.2-5.6-15.9-6.7-12-2.2-24.5-2-36.5-4.8C163.9,37.6,131.7,33,103.1,47.4A70.85,70.85,0,0,0,76.4,75c-10.3,19.4-11.8,42.6-8.5,64.1A105.27,105.27,0,0,0,70.7,152a203.72,203.72,0,0,1,3.2,20.3c2.1,20.5,2.1,41.6-2.5,61.8-3.7,6.7-7.2,13.5-10.3,20.5-2.4,5.9-5.2,12-5.5,18.4a5.9,5.9,0,0,0,.2,1.4h0c-.1-.1,0,0-.3-.2l.6.6c6,8.5,14.8,14.8,23.8,19.9,5.5,3.2,10.6,7.1,16.1,10.3l-1.9-.1a3,3,0,0,1,2.9.5,1.45,1.45,0,0,0-.7-.2c1.9-.3,4.3.5,5.9,1.1l2.1.7-.3-.1c4.4,1,8.8,1.9,13.2,3.1,6.4,1.8,13.2,3.7,19.6,5.7a133.33,133.33,0,0,0,19,4.9,56.1,56.1,0,0,0,5.8,0c9.5-.2,19.5-.7,28.5-3.7,2.8-1.1,5.9-2.3,7.5-4.8h0v1c-.4-3,.1-5.6.4-8.4,1.1-7.5,2.8-15,4.3-22.4l1.7-7.5c.6-2.5,1-5.7,2.4-8a34.33,34.33,0,0,1,2.4-3.3c5.2-7,10.9-14.2,16.4-20.9,3.2-3.9,6.6-7.8,10-11.5,20.1-22.5,39.3-45.9,58.3-69.5,13-15,18-36.7,13.4-56.1Zm.4-.2a68.12,68.12,0,0,1-12.6,57.5q-18.15,24.15-36.9,48c-9.2,12-19.3,23.3-28.9,35-4.4,5.7-9.4,12.1-13.8,17.9-.8,1-2.7,3.6-3.4,4.5a6.21,6.21,0,0,0-1.4,2.5,6.37,6.37,0,0,0-.2.7l-.2.9c-2,8.4-3.8,17.4-5.3,25.8a107.82,107.82,0,0,0-1.8,12.7,3,3,0,0,0,.2,1.7v.3c-.4,2.8-2.9,5-5,6.4-5.5,3.4-11.9,4.6-18,5.5a150.5,150.5,0,0,1-21.2,1c-.9,0-2.4,0-3.3-.1a125.93,125.93,0,0,1-16.8-4.4,365.26,365.26,0,0,0-35.8-10.1l-2.1-.8a7.18,7.18,0,0,0-3.9-.9,3.08,3.08,0,0,1-1-.1,4.88,4.88,0,0,1-.7-.3c-.3-.2-.5-.3-.4-.3a1.21,1.21,0,0,0,.5.1,2,2,0,0,0,.8-.1l-1.9-.1c-3.8-2.2-7.1-4.8-10.7-7.2-3.1-2.1-7.5-4.9-10.7-6.9-7.3-4.8-14.1-10.7-19.1-17.9-3.4-4.1,2.1-16.9,5.1-23.5,3.3-7,7-13.7,10.7-20.3.3-1.7,1.6-6.7,2-9.6,3.9-23.4,2.7-48.1-1.9-71.1C59.4,114,64.1,67.5,100.1,44.5c20.1-11.9,46.1-13.8,67.5-4.2a84.5,84.5,0,0,1,22.7,15l-.9-.5c23.2,5.9,53.7.2,62.1,29.3l-1.3-.5a40.25,40.25,0,0,1,16.6-6.1c18.9-2.5,32.8,11.6,40.5,27.8Z"/><path class="cls-2" d="M250.5,84.8c.6,8.7-.2,17.6-.4,26.2-.9,4.6-3,8.8-5.2,12.9-5.3,9.9-12.7,18.4-20.7,25.9l-5,4.4-.3-.4,4.5-4.8a112.08,112.08,0,0,0,11.8-15.6c4.5-7.1,8.5-14.8,9.8-23.1-.2-4.8,1.5-13.5,3-19.3a51,51,0,0,1,2-6.3l.5.1Z"/><path class="cls-2" d="M200.8,59.6a63.84,63.84,0,0,0-24.3,6.9c-3.7,1.8-7.6,3.9-10.7,7-4.2,4.2-6.8,9.8-8.6,15.5-5.2,14.9-6.9,30.6-10,46h-.5a88.31,88.31,0,0,1-.6-21.8c1.2-10.6,4.4-21.2,10.4-30.1a110.29,110.29,0,0,1,8.2-10.6c6.1-7.7,12.6-13,22.7-14.4a29.36,29.36,0,0,1,13.5,1l-.1.5Z"/><path class="cls-3" d="M81.6,201.9a14.22,14.22,0,0,1,.5-3.6c.3-1.7,1.2-6.3,1.6-8.1a193.65,193.65,0,0,0,3.1-21.6c.1-3.6.5-7.3-.9-10.8,1.9,3.1,2.2,7,2.6,10.7a205.66,205.66,0,0,1,.5,22.2c-.1,2.5-.3,7.1-.4,9.6v.5c-.2.1-7,1.1-7,1.1Z"/><path class="cls-3" d="M105,202.1c0-10.4.9-20.9,3.9-30.9-.6,10.1.8,20.2,3.1,30-.1,0-7,.9-7,.9Z"/><path class="cls-3" d="M135.5,206.1c4.1-11.8,7.9-23.8,8-36.5a86.3,86.3,0,0,1,.5,19c-.5,6.4-1.5,12.7-2.6,19-.1,0-5.9-1.5-5.9-1.5Z"/><path class="cls-3" d="M177.4,220.1a116.49,116.49,0,0,1,15.1-29.6,98.6,98.6,0,0,0-8.5,22.9c-.6,2.6-1.2,5.2-1.8,7.9l-4.8-1.2Z"/><path class="cls-3" d="M203.9,235.9s.1-.2.2-.1a1,1,0,0,0,.1.3c-.2-.7-.8-2.6-.5-3.6.3-2.3,1.3-3.6,2.3-5.4.1-.1.3-.4.4-.5,3.9-4.2,12-12.5,16.1-16.5,5.4-5.5,11.1-10.9,17.6-15.1-5.9,5-10.6,11-15.3,17.1-3.9,5.3-10,12.9-14.4,18l.4-.5a8.62,8.62,0,0,0-.9,3.3c.1.2.1-.1.5.9a6.36,6.36,0,0,1,0,4.7c.1-.1-6.5-2.6-6.5-2.6Z"/><path class="cls-3" d="M74.2,203.9s18.7-8.6,57.6,2.6c0,0,33.1-.3,91.5,42.6l1-1.3c-19.3-10.7-13.8-21.9-13.8-21.9-4.4,2.9-12.7,4.7-17.2,2.3-7.1-4.7-10-18.4-10-18.4-5.2,6.6-19.7,3.9-23.9,2.2-14.5-5.9-17.9-18-17.9-18-1.2,2.1-3.8,4.1-6.2,5.7-3.8,2.5-10.6,3.7-15.1,2.8-13.3-3-12.5-9.7-12.5-9.7-2,3.8-7.7,6.7-7.7,6.7-9,1.7-13.3-12.9-13.1-14.1-2,4-5.8,10.8-5.8,10.8-2.5,7.8-6.6.9-6.6.9Z"/><path class="cls-3" d="M74.4,203.7c0-.1-.2-.1-.2-.1h0a34.54,34.54,0,0,1,3.4-1.4c17.8-5.5,37.2-2.7,55,1.9l-.7-.1c8.8.3,17.4,2.7,25.7,5.5,16.3,5.7,31.1,14.8,45.3,24.2,6.3,4.1,14.8,10.2,21,14.6l-1.3.2a17,17,0,0,0,1-1.4l.3,1.5a39.37,39.37,0,0,1-6.1-3.9c-5.4-3.9-10.5-10.4-9.2-17.5a8.3,8.3,0,0,1,.6-2.1l2.3,2a30,30,0,0,1-4.3,2.3c-4.8,1.7-10.1,2.8-15,.4-6.6-4.5-9.4-12.3-11.4-19.7l4.7,1.2c-5.1,6.2-13.6,5.8-20.8,4.9a34,34,0,0,1-18.7-9.3,32.34,32.34,0,0,1-7.8-12.1l5.8.7c-5.8,8.4-16.9,11.9-26.3,9.3-5.8-1.6-13.2-5.5-12.9-12.5l5,1.6a14.47,14.47,0,0,1-4.2,4.6,35.14,35.14,0,0,1-5.2,3.3h-.3c-8.8,1.3-13.7-8.3-15.3-15.5l-.1-.4v-.8l3.3,1c-1.9,3.3-4.6,8-6.2,10.4a9,9,0,0,1-2.2,3.6c-2.3,2-5-.7-6.1-2.7l1.3-.3c.2,2.2-.3,4.3-.4,6.6Zm-.4.6c-.2-3-.4-6.4-.4-9.4a16.38,16.38,0,0,0,2.9,3.5c2.1,1.8,2.9-.9,3.3-2.6,1.8-3.8,3.7-7.4,5.4-11.2l3.3,1v-.2a8,8,0,0,0,.7,2c1.7,4.3,5,10.7,10.4,9.7l-.7.2c2.4-1.4,5.3-3.6,6.4-5.9l5,1.6v-.1h0c.9,3.9,5.6,5.2,9,6.1,4.2,1.2,9,.3,12.9-1.5a19.76,19.76,0,0,0,6.4-5.3l3.5-5.9,2.3,6.6.2.5a25.26,25.26,0,0,0,5.9,8.8,27.35,27.35,0,0,0,15.1,8.1c5,.8,11.8,1.4,15.5-2.4l3.7-4.5,1.1,5.6c1.2,5.9,4,13.7,8.3,17,4.7,2.3,11,.8,15.4-1.7l5-3.1-2.8,5c-3.1,9,5.9,16.3,12.8,20.3l1.1.7a33.57,33.57,0,0,0-2.4,2.9c-3.4-2.5-7.7-5.6-11.1-7.9a243,243,0,0,0-56.7-27.9c-8-2.7-16.3-5-24.7-5.7-16.1-4.8-33-8.1-49.7-6.2a33.81,33.81,0,0,0-6.9,1.4c.2.4,0,.4-.2.5Z"/><g class="cls-4"><path class="cls-2" d="M166.6,418.1c0,13.3-4,24.6-12,34.2-8.5,10-19.2,15-32.2,15-4.9,0-12.2-.1-22-.3s-17.1-.3-22-.3c-3.6,0-9,.2-16.2.5s-12.6.5-16.2.5c-1.9,0-2.9-.9-2.9-2.6q0-12.6,1.2-37.8t1.2-37.8c0-8.8-.4-22.1-1.2-39.8s-1.2-31-1.2-39.8c0-1.7,1-2.5,2.9-2.5,6.8,0,17,0,30.6.1s23.9.1,30.7.1c16,0,28.8,3,38.3,8.9,11.6,7.2,17.4,18.5,17.4,33.7a39.27,39.27,0,0,1-15.7,29.3c-2.2,1.4-3.3,2.4-3.3,2.9s1.1,1.3,3.3,2.5A35.59,35.59,0,0,1,161.2,399,36.36,36.36,0,0,1,166.6,418.1Zm-32.1-65.6c0-10.7-4.8-18-14.4-21.7q-8.7-3.3-28.5-3.3c-12.8,0-19.2,1-19.2,2.9,0,2.5-.1,6.3-.3,11.3s-.3,8.8-.3,11.4c0,1.8,0,4.5.1,8.1s.1,6.4.1,8.2q0,3.3,25.8,3.3C122.3,372.7,134.5,366,134.5,352.5Zm3.1,64.5c0-9.3-4.2-15.6-12.5-18.9-5.3-2.1-13.4-3.2-24.6-3.2-19.2,0-28.8,1-28.8,3.1v18.7c0,2.7.1,6.9.2,12.6s.2,9.9.2,12.7c0,.8,2.4,1.3,7.3,1.7s12.1.6,21.7.6c12,0,20.7-1.6,25.9-4.7C134.1,435.5,137.6,427.9,137.6,417Z"/></g><g class="cls-4"><path class="cls-2" d="M216.7,364.2a70,70,0,0,1-11.6,17.6,15.77,15.77,0,0,1-4.7-.7,7.73,7.73,0,0,1-3.6-2c3.4-4.7,5.7-8.3,6.6-10.9a25.44,25.44,0,0,0,1.4-9.2c0-6.1-3.2-9.5-9.7-10.3a53,53,0,0,1,.4-6.3,31.12,31.12,0,0,1,1.2-6.1,51.34,51.34,0,0,0,16.6-6.2c4.7,1.8,7,6.8,7,14.9A47.3,47.3,0,0,1,216.7,364.2Z"/></g><g class="cls-4"><path class="cls-2" d="M315.6,360.2a145.42,145.42,0,0,1-1.7,22.9c-.2,1.8-1,2.6-2.3,2.6-1.6,0-4-.2-7.3-.5s-5.7-.5-7.4-.5c-9.6,0-15.7,2.7-18.4,8.1-1.6,3.3-2.4,10.1-2.4,20.5v12.6c0,4.3.2,10.7.5,19.4s.5,15.2.5,19.4c0,2.1-.9,3.1-2.6,3.1-2.4,0-5.9,0-10.7-.1s-8.4-.1-10.7-.1c-1.8,0-2.6-1-2.6-2.9q0-9.3.3-27.9c.2-12.4.3-21.7.3-28,0-18.8-1.8-33.9-5.3-45.4a4.19,4.19,0,0,1-.2-1.4,1.9,1.9,0,0,1,1.5-1.9c2.8-.3,6.8-.8,11.9-1.4,8.2-1.5,12-2.3,11.4-2.3,1.2,0,2,2.2,2.4,6.7s1.1,6.7,2.1,6.7c.2,0,.3-.1.6-.2,3.1-2,6.2-4,9.4-5.9a39.61,39.61,0,0,1,21.9-6C312.6,357.8,315.6,358.6,315.6,360.2Z"/><path class="cls-2" d="M425,406.1c0,5.6-2.4,9.4-7.3,11.3-3.3,1.2-26.9,3.5-70.7,6.7q1.5,10,11.1,17.1a32.35,32.35,0,0,0,19.7,6.7,52.71,52.71,0,0,0,33.1-11.7c1.2-1,2.4-2,3.7-3a2.87,2.87,0,0,1,1.2.2c.2.2,1.6,2.8,4.3,7.9s4,7.9,4,8.3-.6,1.3-1.8,2.6q-16.8,17.85-43.1,17.8c-17.7,0-31.8-5.3-42.3-15.8s-15.8-24.6-15.8-42.2c0-15.7,5-29.4,15.1-41,10.6-12.1,23.6-18.2,39-18.2a46.74,46.74,0,0,1,35.9,15.8C420.3,379.1,425,391.5,425,406.1Zm-27.2-7q0-9.45-7.5-16.8c-5-4.9-10.6-7.3-16.9-7.3-7,0-13.2,2.8-18.7,8.5s-8.2,12-8.2,19c0,1.6,1.4,2.4,4.1,2.4a284.52,284.52,0,0,0,40.5-3.4C395.6,400.8,397.8,400,397.8,399.1Z"/><path class="cls-2" d="M552,364.1a16.21,16.21,0,0,1-.3,2.1c-3,17.4-4.5,32.5-4.5,45.1,0,.8,1,17.9,2.9,51.3l.1,1.6q.15,3.3-3,3.3a85.44,85.44,0,0,0-9.5.7,85.63,85.63,0,0,1-9.4.7c-1.4,0-2.6-2.7-3.3-8s-1.5-8-2.2-8c-.5,0-2.5,1.5-6.2,4.5a64.55,64.55,0,0,1-12.6,8.3,40.17,40.17,0,0,1-18.1,4.6c-14.8,0-27.2-5.9-37.4-17.7a59,59,0,0,1-14.4-39.4c0-16.9,4.8-30.9,14.5-41.9,10.1-11.5,23.5-17.3,40-17.3a43.18,43.18,0,0,1,30.5,12.1c1.3,1.5,3.3,3.7,6.1,6.6a1.08,1.08,0,0,0,.7.3c.5,0,1.1-2.4,1.9-7.2s1.9-7.2,3.2-7.2a74,74,0,0,1,11.5,1.7C548.9,361.8,552,363,552,364.1Zm-29.1,47.7a36.75,36.75,0,0,0-8.3-24.1c-5.9-7.2-13.4-10.9-22.5-10.9a29.09,29.09,0,0,0-22.9,10.7,35.92,35.92,0,0,0-8.8,24.2,35.41,35.41,0,0,0,8.8,24,28.86,28.86,0,0,0,22.9,10.6c8.9,0,16.4-3.6,22.4-10.9A35.35,35.35,0,0,0,522.9,411.8Z"/><path class="cls-2" d="M680.5,308.1c0,9.8-.4,24.5-1.3,44.2s-1.3,34.3-1.3,44q0,45.15,1.9,68.3l.1,1.5c.1.8-1,1.3-3.1,1.5a31.32,31.32,0,0,1-6.2,0q-4.8-.3-4.5-.3c-1.1,0-2.8.1-5,.3s-3.9.3-5,.3-1.7-2.6-1.9-7.9-.5-8-.9-8.1a5.28,5.28,0,0,0-1.7,1.5c-10.4,11.3-22.4,16.9-36,16.9-15.4,0-28-5.9-37.9-17.6-9.4-11-14.1-24.4-14.1-40,0-16.2,4.7-29.9,14.2-40.9q14.85-17.4,38.7-17.4a38.91,38.91,0,0,1,25.1,8.5c3.3,2.8,6.5,5.7,9.7,8.6a1.52,1.52,0,0,0,.9-1.6v-37q0-3.75-.3-11.4c-.2-5.1-.3-9-.3-11.5q0-2.7,1.8-2.7c2.8,0,7-.2,12.6-.7s9.7-.7,12.5-.7C679.8,305.7,680.5,306.5,680.5,308.1ZM651.9,412a36.79,36.79,0,0,0-8.5-24.1c-6-7.4-13.5-11.1-22.4-11.1-9.4,0-17.1,3.7-23.2,11a37.08,37.08,0,0,0-8.7,24.7,35,35,0,0,0,9,23.9c6.2,7.2,13.8,10.7,22.9,10.7a27.84,27.84,0,0,0,22.6-10.9C649.1,429.5,651.9,421.4,651.9,412Z"/><path class="cls-2" d="M797,387.9c0,12.9-.4,20.6-1.1,23.3q-1.5,5.1-28.3,44.9t-31.8,44.4c-3,2.7-12.9,4.1-29.5,4.1-2,0-3.3-.2-3.8-.6s-1.9-3.2-3.9-8.3-3-8.2-3-9.1c0-1.7,2-2.5,6.1-2.5,8.5,0,14.8-1.2,18.9-3.7,1.4-.8,3.4-3.5,6.2-7.9s4.2-7.4,4.2-8.9c0-2.1-5.5-10.1-16.6-24.1q-17.55-22.35-19.5-28.2c-1.1-3.1-1.6-10.6-1.6-22.4,0-2.9,0-7.3.1-13.1s.1-10.2.1-13.2c0-1.7.9-2.5,2.7-2.5,2.4,0,6,.2,10.8.5s8.4.5,10.8.5q1.8,0,1.8,2.4,0,3.15-.3,9.6t-.3,9.6a175.08,175.08,0,0,0,.9,20.8c.5,2.9,4.6,10.1,12.5,21.6s12.7,17.3,14.5,17.3c1.3,0,5.4-5.7,12.3-17s10.6-18.3,11.1-21c.6-3.8.9-10.7.9-20.8a89.8,89.8,0,0,0-.7-9.8,88.33,88.33,0,0,1-.7-9.7c0-1.9.6-2.9,1.8-2.9,2.4,0,6.1-.2,11-.5s8.6-.5,11-.5S797,369.4,797,387.9Z"/></g></g></svg>